<svg preserveAspectRatio="none" width="100%" height="100%" overflow="visible" style="display: block;" viewBox="0 0 176 72" fill="none" xmlns="http://www.w3.org/2000/svg">
<g id="Table cell">
<mask id="path-1-inside-1_114_1389" fill="white">
<path d="M0 12C0 5.37258 5.37258 0 12 0H164C170.627 0 176 5.37258 176 12V72H0V12Z"/>
</mask>
<path d="M0 12C0 5.37258 5.37258 0 12 0H164C170.627 0 176 5.37258 176 12V72H0V12Z" fill="var(--fill-0, #074720)"/>
<path d="M0 0H176H0ZM176 73H0V71H176V73ZM0 72V0V72ZM176 0V72V0Z" fill="var(--stroke-0, #E9EAEB)" mask="url(#path-1-inside-1_114_1389)"/>
<path id="Vector" d="M132.586 19.2855H142V22.0968H135.866V42.96H132.68V22.0968H132.586V22.348H128.422V42.8062H124.678V36.5618C123.292 37.3598 121.598 37.9052 119.253 37.9052C116.601 37.9052 114.5 37.2055 112.881 35.7666C111.52 34.5572 110.518 32.8417 109.81 30.6277H106.758C105.073 30.6277 103.761 30.8688 102.877 31.406C102.013 31.9303 101.534 32.7507 101.534 33.9949C101.534 36.2876 103.141 38.1899 106.386 41.0217L106.595 41.2033L106.381 41.379L104.077 43.2729L103.921 43.4001L103.772 43.267C99.9681 39.8855 97.7907 37.0393 97.7907 33.6238C97.7907 31.5464 98.6234 30.0046 100.112 28.9928C101.586 27.9903 103.682 27.5226 106.192 27.5226H111.763V28.5988C112.736 28.3404 113.485 28.0439 114.038 27.6937C114.486 27.4101 114.798 27.0958 114.999 26.7452C115.2 26.3956 115.298 25.9961 115.298 25.5295C115.298 24.3423 114.683 23.2365 113.665 22.348H83.1145V28.8093C84.2596 28.0068 85.7899 27.4856 87.6106 27.4856C89.5771 27.4856 91.1678 28.0663 92.2675 29.1447C93.3681 30.2236 93.9501 31.7744 93.9501 33.6609C93.9501 36.3335 92.9057 38.7293 90.4861 41.1773L90.3587 41.3059L90.2022 41.2152L87.3722 39.5817L87.099 39.4239L87.3286 39.2079C89.0875 37.5559 90.2467 35.7942 90.2467 33.6238C90.2467 32.5883 89.9656 31.829 89.4708 31.3286C88.976 30.8286 88.2352 30.5536 87.247 30.5535C85.6666 30.5535 84.0956 31.5481 83.1145 33.1337V41.6797C83.1651 41.6765 83.2157 41.6724 83.2663 41.6696L83.487 41.6573L83.5123 41.8764L83.7953 44.3271L83.8224 44.5614L83.5877 44.587C82.0635 44.7528 80.9976 45.0633 80.3179 45.5228C79.6563 45.97 79.3493 46.5651 79.3493 47.3617C79.3493 48.2003 79.6699 48.7555 80.2008 49.1119C80.7469 49.4785 81.542 49.6518 82.511 49.6518C84.0403 49.6518 85.2164 49.2949 86.7701 48.4901L86.9908 48.3757L87.092 48.6031L88.1837 51.0534L88.2666 51.24L88.0928 51.348C86.6754 52.2286 84.7309 52.7568 82.6328 52.7569C80.6148 52.7569 78.9297 52.2467 77.7446 51.2895C76.5538 50.3277 75.8887 48.9312 75.8887 47.213C75.8887 45.6022 76.5271 44.2696 77.7858 43.3136C78.2373 42.9707 78.7665 42.6789 79.3708 42.4388V36.7348C77.92 37.7855 76.0548 38.4249 73.7835 38.425C71.6839 38.425 69.7384 37.8772 68.3123 36.765C66.8794 35.6474 65.9884 33.9723 65.9884 31.767C65.9884 29.6778 66.7851 28.0006 68.273 26.8523C69.7528 25.7102 71.892 25.1095 74.5513 25.1094C75.942 25.1094 77.2125 25.2594 78.2406 25.486L78.4451 25.5313L78.4231 25.7395L78.1404 28.4496L78.1125 28.7155L77.8526 28.6533C76.9406 28.4348 75.8268 28.2886 74.6322 28.2886C73.0007 28.2886 71.7742 28.6182 70.9612 29.2216C70.1593 29.8167 69.7322 30.6988 69.7322 31.8786C69.7322 33.0379 70.1686 33.8774 70.8756 34.4327C71.5904 34.9941 72.6053 35.2829 73.7835 35.2829C76.1386 35.2828 78.1905 34.0916 79.3708 32.5778V22.348H60.7341C62.5775 24.16 63.2077 26.3651 63.238 27.7546V44.7426C59.654 45.4614 59.3789 43.4563 59.2416 42.8131V39.0862L50.1273 44.8172H42.0591L59.2416 34.6561V27.7546C58.3846 24.0319 55.0394 22.9245 53.474 22.8362H43.5041V29.0788C44.8553 33.3766 47.6651 34.2494 48.901 34.1486C49.3955 34.1083 51.1914 33.9971 51.6199 31.7272C52.0482 29.4572 49.0247 26.8212 47.4593 25.7871C47.94 25.8375 50.1115 25.7896 53.474 27.7546C58.0057 30.403 57.0993 37.7048 48.901 37.0995C42.3425 36.6151 40.2907 31.5506 40.0847 29.0788V22.348H34V19.243H132.586V19.2855ZM80.1857 49.3796C80.1975 49.3866 80.2099 49.3928 80.2218 49.3997C80.2074 49.3914 80.1927 49.3835 80.1784 49.375L80.1857 49.3796ZM74.6702 38.1564L74.8848 38.1377C74.915 38.1347 74.945 38.1308 74.975 38.1276C74.8743 38.1384 74.7728 38.1484 74.6702 38.1564ZM117.756 22.348C118.591 23.4678 119.001 24.6762 119.001 25.8635C119.001 27.2338 118.59 28.3618 117.714 29.2787C116.886 30.1458 115.659 30.807 114.023 31.3222C114.485 32.4606 115.065 33.3046 115.843 33.8755C116.671 34.483 117.75 34.8002 119.212 34.8002C121.594 34.8002 123.338 33.6919 124.678 32.3732V22.348H117.756ZM101.319 34.4428C101.321 34.4632 101.324 34.4834 101.326 34.5037C101.324 34.4811 101.321 34.4586 101.319 34.436L101.319 34.4428ZM66.2313 31.3927C66.2284 31.4527 66.2264 31.5131 66.225 31.5739C66.2279 31.4507 66.2339 31.3292 66.2428 31.2092L66.2313 31.3927ZM85.2295 28.0543C85.1325 28.0833 85.0369 28.1144 84.9427 28.1467C85.1362 28.0805 85.3358 28.0206 85.5415 27.9687L85.2295 28.0543ZM86.8849 27.7486C86.8258 27.7534 86.7673 27.7588 86.7092 27.7647C86.7794 27.7575 86.8497 27.7514 86.9209 27.7459C86.9092 27.7468 86.897 27.7477 86.8849 27.7486ZM87.6106 27.7198C87.4869 27.7198 87.3642 27.7223 87.2433 27.7271C87.1435 27.7311 87.0451 27.7369 86.9476 27.7441C87.1636 27.7282 87.3848 27.7198 87.6106 27.7198C87.8496 27.7198 88.0825 27.7285 88.3092 27.7459C88.1963 27.7373 88.082 27.7311 87.9663 27.7267C87.8491 27.7223 87.7306 27.7198 87.6106 27.7198ZM115.437 24.6944C115.446 24.7332 115.454 24.7721 115.462 24.8111C115.47 24.8503 115.477 24.8897 115.483 24.9291C115.47 24.8502 115.455 24.7722 115.437 24.6944Z" fill="var(--fill-0, white)"/>
</g>
</svg>
